{
  "accessors": [
    {
      "bufferView": 2,
      "componentType": 5126,
      "count": 808,
      "max": [
        8.5996341705322266,
        5.3427948951721191,
        7.7015500068664551
      ],
      "min": [
        -8.5996341705322266,
        -5.3427948951721191,
        -7.7015500068664551
      ],
      "type": "VEC3"
    },
    {
      "bufferView": 2,
      "byteOffset": 9696,
      "componentType": 5126,
      "count": 808,
      "max": [
        1,
        1,
        1
      ],
      "min": [
        -1,
        -1,
        -1
      ],
      "type": "VEC3"
    },
    {
      "bufferView": 3,
      "componentType": 5126,
      "count": 808,
      "max": [
        1,
        1,
        1,
        1
      ],
      "min": [
        -1,
        -1,
        -0.00033548779902048409,
        1
      ],
      "type": "VEC4"
    },
    {
      "bufferView": 1,
      "componentType": 5126,
      "count": 808,
      "max": [
        0.99397897720336914,
        0.99501597881317139
      ],
      "min": [
        0.0046169999986886978,
        0.0054700002074241638
      ],
      "type": "VEC2"
    },
    {
      "bufferView": 0,
      "componentType": 5125,
      "count": 1212,
      "max": [
        807
      ],
      "min": [
        0
      ],
      "type": "SCALAR"
    },
    {
      "bufferView": 2,
      "byteOffset": 19392,
      "componentType": 5126,
      "count": 1089,
      "max": [
        7.9826750755310059,
        5.0129117965698242,
        -1.4111369848251343
      ],
      "min": [
        -5.5082831382751465,
        -5.1260337829589844,
        -4.2114219665527344
      ],
      "type": "VEC3"
    },
    {
      "bufferView": 2,
      "byteOffset": 32460,
      "componentType": 5126,
      "count": 1089,
      "max": [
        0.99184399843215942,
        0.9996986985206604,
        1
      ],
      "min": [
        -0.26841655373573303,
        -0.9999009370803833,
        -0.051097739487886429
      ],
      "type": "VEC3"
    },
    {
      "bufferView": 3,
      "byteOffset": 12928,
      "componentType": 5126,
      "count": 1089,
      "max": [
        0.36011797189712524,
        0.99971264600753784,
        0.99752557277679443,
        -1
      ],
      "min": [
        -0.6005479097366333,
        -0.051627147942781448,
        -0.99733841419219971,
        -1
      ],
      "type": "VEC4"
    },
    {
      "bufferView": 1,
      "byteOffset": 6464,
      "componentType": 5126,
      "count": 1089,
      "max": [
        0.81585800647735596,
        0.99990999698638916
      ],
      "min": [
        9.0000001364387572e-05,
        9.0000001364387572e-05
      ],
      "type": "VEC2"
    },
    {
      "bufferView": 0,
      "byteOffset": 4848,
      "componentType": 5125,
      "count": 6144,
      "max": [
        1088
      ],
      "min": [
        0
      ],
      "type": "SCALAR"
    },
    {
      "bufferView": 2,
      "byteOffset": 45528,
      "componentType": 5126,
      "count": 1089,
      "max": [
        7.9826750755310059,
        5.1562800407409668,
        7.5112209320068359
      ],
      "min": [
        -5.5082821846008301,
        -4.982666015625,
        4.7109360694885254
      ],
      "type": "VEC3"
    },
    {
      "bufferView": 2,
      "byteOffset": 58596,
      "componentType": 5126,
      "count": 1089,
      "max": [
        0.99184399843215942,
        0.9999009370803833,
        1
      ],
      "min": [
        -0.26841655373573303,
        -0.9996986985206604,
        -0.051097739487886429
      ],
      "type": "VEC3"
    },
    {
      "bufferView": 3,
      "byteOffset": 30352,
      "componentType": 5126,
      "count": 1089,
      "max": [
        0.3601202666759491,
        0.05162714421749115,
        0.99752557277679443,
        1
      ],
      "min": [
        -0.60054636001586914,
        -0.99971258640289307,
        -0.99733847379684448,
        1
      ],
      "type": "VEC4"
    },
    {
      "bufferView": 1,
      "byteOffset": 15176,
      "componentType": 5126,
      "count": 1089,
      "max": [
        0.81585800647735596,
        0.99990999698638916
      ],
      "min": [
        9.0000001364387572e-05,
        9.0000001364387572e-05
      ],
      "type": "VEC2"
    },
    {
      "bufferView": 0,
      "byteOffset": 29424,
      "componentType": 5125,
      "count": 6144,
      "max": [
        1088
      ],
      "min": [
        0
      ],
      "type": "SCALAR"
    },
    {
      "bufferView": 2,
      "byteOffset": 71664,
      "componentType": 5126,
      "count": 82,
      "max": [
        8.2113142013549805,
        4.7772870063781738,
        5.8233609199523926
      ],
      "min": [
        -8.2113142013549805,
        -4.7772870063781738,
        3.5306389331817627
      ],
      "type": "VEC3"
    },
    {
      "bufferView": 2,
      "byteOffset": 72648,
      "componentType": 5126,
      "count": 82,
      "max": [
        0.96728163957595825,
        0.96728163957595825,
        0.96728163957595825
      ],
      "min": [
        -0.96728163957595825,
        -0.96728163957595825,
        -0.96728163957595825
      ],
      "type": "VEC3"
    },
    {
      "bufferView": 3,
      "byteOffset": 47776,
      "componentType": 5126,
      "count": 82,
      "max": [
        0.98350071907043457,
        0.9837755560874939,
        0.9511106014251709,
        1
      ],
      "min": [
        -0.98350054025650024,
        -0.98350059986114502,
        -0.9511224627494812,
        1
      ],
      "type": "VEC4"
    },
    {
      "bufferView": 1,
      "byteOffset": 23888,
      "componentType": 5126,
      "count": 82,
      "max": [
        0.99580901861190796,
        0.55680602788925171
      ],
      "min": [
        0.019940000027418137,
        0.10734400153160095
      ],
      "type": "VEC2"
    },
    {
      "bufferView": 0,
      "byteOffset": 54000,
      "componentType": 5125,
      "count": 324,
      "max": [
        81
      ],
      "min": [
        0
      ],
      "type": "SCALAR"
    },
    {
      "bufferView": 2,
      "byteOffset": 73632,
      "componentType": 5126,
      "count": 1322,
      "max": [
        -3.5508980751037598,
        4.8479909896850586,
        -1.3332669734954834
      ],
      "min": [
        -7.6071767807006836,
        -4.6899189949035645,
        -3.1732299327850342
      ],
      "type": "VEC3"
    },
    {
      "bufferView": 2,
      "byteOffset": 89496,
      "componentType": 5126,
      "count": 1322,
      "max": [
        0.99979692697525024,
        0.99306970834732056,
        0.9999312162399292
      ],
      "min": [
        -0.99964922666549683,
        -0.99437916278839111,
        -0.99985295534133911
      ],
      "type": "VEC3"
    },
    {
      "bufferView": 3,
      "byteOffset": 49088,
      "componentType": 5126,
      "count": 1322,
      "max": [
        0.9994882345199585,
        0.99998784065246582,
        0.92594945430755615,
        1
      ],
      "min": [
        -0.31496164202690125,
        -0.97188699245452881,
        -0.92283719778060913,
        1
      ],
      "type": "VEC4"
    },
    {
      "bufferView": 1,
      "byteOffset": 24544,
      "componentType": 5126,
      "count": 1322,
      "max": [
        0.86173200607299805,
        0.99980902671813965
      ],
      "min": [
        0.00019099999917671084,
        0.00019099999917671084
      ],
      "type": "VEC2"
    },
    {
      "bufferView": 0,
      "byteOffset": 55296,
      "componentType": 5125,
      "count": 6912,
      "max": [
        1321
      ],
      "min": [
        0
      ],
      "type": "SCALAR"
    },
    {
      "bufferView": 2,
      "byteOffset": 105360,
      "componentType": 5126,
      "count": 1322,
      "max": [
        -3.5508980751037598,
        4.7201647758483887,
        7.5890898704528809
      ],
      "min": [
        -7.6071767807006836,
        -4.8177452087402344,
        5.7491278648376465
      ],
      "type": "VEC3"
    },
    {
      "bufferView": 2,
      "byteOffset": 121224,
      "componentType": 5126,
      "count": 1322,
      "max": [
        0.99979692697525024,
        0.99437916278839111,
        0.9999312162399292
      ],
      "min": [
        -0.99964922666549683,
        -0.99306970834732056,
        -0.99985295534133911
      ],
      "type": "VEC3"
    },
    {
      "bufferView": 3,
      "byteOffset": 70240,
      "componentType": 5126,
      "count": 1322,
      "max": [
        0.99948763847351074,
        0.99999195337295532,
        0.92306280136108398,
        1
      ],
      "min": [
        -0.34999004006385803,
        -0.99664407968521118,
        -0.92573171854019165,
        1
      ],
      "type": "VEC4"
    },
    {
      "bufferView": 1,
      "byteOffset": 35120,
      "componentType": 5126,
      "count": 1322,
      "max": [
        0.86147397756576538,
        0.99980902671813965
      ],
      "min": [
        0.00019099999917671084,
        0.00019099999917671084
      ],
      "type": "VEC2"
    },
    {
      "bufferView": 0,
      "byteOffset": 82944,
      "componentType": 5125,
      "count": 6912,
      "max": [
        1321
      ],
      "min": [
        0
      ],
      "type": "SCALAR"
    },
    {
      "bufferView": 2,
      "byteOffset": 137088,
      "componentType": 5126,
      "count": 82,
      "max": [
        8.2113142013549805,
        4.7772870063781738,
        -3.1236350536346436
      ],
      "min": [
        -8.2113142013549805,
        -4.7772870063781738,
        -5.4163570404052734
      ],
      "type": "VEC3"
    },
    {
      "bufferView": 2,
      "byteOffset": 138072,
      "componentType": 5126,
      "count": 82,
      "max": [
        0.96728163957595825,
        0.96728163957595825,
        0.96728163957595825
      ],
      "min": [
        -0.96728163957595825,
        -0.96728163957595825,
        -0.96728163957595825
      ],
      "type": "VEC3"
    },
    {
      "bufferView": 3,
      "byteOffset": 91392,
      "componentType": 5126,
      "count": 82,
      "max": [
        0.98350071907043457,
        0.9837755560874939,
        0.95111042261123657,
        1
      ],
      "min": [
        -0.98350054025650024,
        -0.98350059986114502,
        -0.95112216472625732,
        1
      ],
      "type": "VEC4"
    },
    {
      "bufferView": 1,
      "byteOffset": 45696,
      "componentType": 5126,
      "count": 82,
      "max": [
        0.99580901861190796,
        0.55680602788925171
      ],
      "min": [
        0.019940000027418137,
        0.10734400153160095
      ],
      "type": "VEC2"
    },
    {
      "bufferView": 0,
      "byteOffset": 110592,
      "componentType": 5125,
      "count": 324,
      "max": [
        81
      ],
      "min": [
        0
      ],
      "type": "SCALAR"
    }
  ],
  "asset": {
    "extras": {
      "author": "Blender3D (https://sketchfab.com/Blender3D)",
      "license": "CC-BY-4.0 (http://creativecommons.org/licenses/by/4.0/)",
      "source": "https://sketchfab.com/models/9fb7c54715dd41b98b3dc67b367cf81d",
      "title": "Simple Bunk Bed"
    },
    "generator": "Sketchfab-4.2.0",
    "version": "2.0"
  },
  "bufferViews": [
    {
      "buffer": 0,
      "byteLength": 111888,
      "byteOffset": 0,
      "name": "floatBufferViews",
      "target": 34963
    },
    {
      "buffer": 0,
      "byteLength": 46352,
      "byteOffset": 111888,
      "byteStride": 8,
      "name": "floatBufferViews",
      "target": 34962
    },
    {
      "buffer": 0,
      "byteLength": 139056,
      "byteOffset": 158240,
      "byteStride": 12,
      "name": "floatBufferViews",
      "target": 34962
    },
    {
      "buffer": 0,
      "byteLength": 92704,
      "byteOffset": 297296,
      "byteStride": 16,
      "name": "floatBufferViews",
      "target": 34962
    }
  ],
  "buffers": [
    {
      "byteLength": 390000,
      "uri": "scene.bin"
    }
  ],
  "extensionsRequired": [
    "KHR_materials_pbrSpecularGlossiness"
  ],
  "extensionsUsed": [
    "KHR_materials_pbrSpecularGlossiness"
  ],
  "images": [
    {
      "uri": "textures/None_Blanket_Top_Diffuse_occlusion.png"
    },
    {
      "uri": "textures/None_Blanket_Top_Diffuse_diffuse.jpeg"
    },
    {
      "uri": "textures/None_Pillows_Top_Diffuse_occlusion.png"
    },
    {
      "uri": "textures/None_Pillows_Top_Diffuse_diffuse.jpeg"
    },
    {
      "uri": "textures/None_Untitled_occlusion.png"
    },
    {
      "uri": "textures/None_Untitled_diffuse.jpeg"
    },
    {
      "uri": "textures/None_occlusion.png"
    },
    {
      "uri": "textures/None_diffuse.jpeg"
    },
    {
      "uri": "textures/None_Blanket_Bottom_Diffuse_occlusion.png"
    },
    {
      "uri": "textures/None_Blanket_Bottom_Diffuse_diffuse.jpeg"
    },
    {
      "uri": "textures/None_Matress_Top_Diffuse_occlusion.png"
    },
    {
      "uri": "textures/None_Matress_Top_Diffuse_diffuse.jpeg"
    },
    {
      "uri": "textures/None_Pillows_Bottom_Diffuse_occlusion.png"
    },
    {
      "uri": "textures/None_Pillows_Bottom_Diffuse_diffuse.jpeg"
    }
  ],
  "materials": [
    {
      "doubleSided": true,
      "extensions": {
        "KHR_materials_pbrSpecularGlossiness": {
          "diffuseFactor": [
            1,
            1,
            1,
            1
          ],
          "diffuseTexture": {
            "index": 7,
            "texCoord": 0
          },
          "glossinessFactor": 0,
          "specularFactor": [
            0.050000000000000003,
            0.050000000000000003,
            0.050000000000000003
          ]
        }
      },
      "name": "None",
      "occlusionTexture": {
        "index": 6,
        "strength": 1,
        "texCoord": 0
      }
    },
    {
      "doubleSided": true,
      "extensions": {
        "KHR_materials_pbrSpecularGlossiness": {
          "diffuseFactor": [
            1,
            1,
            1,
            1
          ],
          "diffuseTexture": {
            "index": 9,
            "texCoord": 0
          },
          "glossinessFactor": 0,
          "specularFactor": [
            0.050000000000000003,
            0.050000000000000003,
            0.050000000000000003
          ]
        }
      },
      "name": "None_Blanket_Bottom_Diffuse",
      "occlusionTexture": {
        "index": 8,
        "strength": 1,
        "texCoord": 0
      }
    },
    {
      "doubleSided": true,
      "extensions": {
        "KHR_materials_pbrSpecularGlossiness": {
          "diffuseFactor": [
            1,
            1,
            1,
            1
          ],
          "diffuseTexture": {
            "index": 1,
            "texCoord": 0
          },
          "glossinessFactor": 0,
          "specularFactor": [
            0.050000000000000003,
            0.050000000000000003,
            0.050000000000000003
          ]
        }
      },
      "name": "None_Blanket_Top_Diffuse",
      "occlusionTexture": {
        "index": 0,
        "strength": 1,
        "texCoord": 0
      }
    },
    {
      "doubleSided": true,
      "extensions": {
        "KHR_materials_pbrSpecularGlossiness": {
          "diffuseFactor": [
            1,
            1,
            1,
            1
          ],
          "diffuseTexture": {
            "index": 11,
            "texCoord": 0
          },
          "glossinessFactor": 0,
          "specularFactor": [
            0.050000000000000003,
            0.050000000000000003,
            0.050000000000000003
          ]
        }
      },
      "name": "None_Matress_Top_Diffuse",
      "occlusionTexture": {
        "index": 10,
        "strength": 1,
        "texCoord": 0
      }
    },
    {
      "doubleSided": true,
      "extensions": {
        "KHR_materials_pbrSpecularGlossiness": {
          "diffuseFactor": [
            1,
            1,
            1,
            1
          ],
          "diffuseTexture": {
            "index": 13,
            "texCoord": 0
          },
          "glossinessFactor": 0,
          "specularFactor": [
            0.050000000000000003,
            0.050000000000000003,
            0.050000000000000003
          ]
        }
      },
      "name": "None_Pillows_Bottom_Diffuse",
      "occlusionTexture": {
        "index": 12,
        "strength": 1,
        "texCoord": 0
      }
    },
    {
      "doubleSided": true,
      "extensions": {
        "KHR_materials_pbrSpecularGlossiness": {
          "diffuseFactor": [
            1,
            1,
            1,
            1
          ],
          "diffuseTexture": {
            "index": 3,
            "texCoord": 0
          },
          "glossinessFactor": 0,
          "specularFactor": [
            0.050000000000000003,
            0.050000000000000003,
            0.050000000000000003
          ]
        }
      },
      "name": "None_Pillows_Top_Diffuse",
      "occlusionTexture": {
        "index": 2,
        "strength": 1,
        "texCoord": 0
      }
    },
    {
      "doubleSided": true,
      "extensions": {
        "KHR_materials_pbrSpecularGlossiness": {
          "diffuseFactor": [
            1,
            1,
            1,
            1
          ],
          "diffuseTexture": {
            "index": 5,
            "texCoord": 0
          },
          "glossinessFactor": 0,
          "specularFactor": [
            0.050000000000000003,
            0.050000000000000003,
            0.050000000000000003
          ]
        }
      },
      "name": "None_Untitled",
      "occlusionTexture": {
        "index": 4,
        "strength": 1,
        "texCoord": 0
      }
    }
  ],
  "meshes": [
    {
      "primitives": [
        {
          "attributes": {
            "NORMAL": 1,
            "POSITION": 0,
            "TANGENT": 2,
            "TEXCOORD_0": 3
          },
          "indices": 4,
          "material": 0,
          "mode": 4
        }
      ]
    },
    {
      "primitives": [
        {
          "attributes": {
            "NORMAL": 6,
            "POSITION": 5,
            "TANGENT": 7,
            "TEXCOORD_0": 8
          },
          "indices": 9,
          "material": 1,
          "mode": 4
        }
      ]
    },
    {
      "primitives": [
        {
          "attributes": {
            "NORMAL": 11,
            "POSITION": 10,
            "TANGENT": 12,
            "TEXCOORD_0": 13
          },
          "indices": 14,
          "material": 2,
          "mode": 4
        }
      ]
    },
    {
      "primitives": [
        {
          "attributes": {
            "NORMAL": 16,
            "POSITION": 15,
            "TANGENT": 17,
            "TEXCOORD_0": 18
          },
          "indices": 19,
          "material": 3,
          "mode": 4
        }
      ]
    },
    {
      "primitives": [
        {
          "attributes": {
            "NORMAL": 21,
            "POSITION": 20,
            "TANGENT": 22,
            "TEXCOORD_0": 23
          },
          "indices": 24,
          "material": 4,
          "mode": 4
        }
      ]
    },
    {
      "primitives": [
        {
          "attributes": {
            "NORMAL": 26,
            "POSITION": 25,
            "TANGENT": 27,
            "TEXCOORD_0": 28
          },
          "indices": 29,
          "material": 5,
          "mode": 4
        }
      ]
    },
    {
      "primitives": [
        {
          "attributes": {
            "NORMAL": 31,
            "POSITION": 30,
            "TANGENT": 32,
            "TEXCOORD_0": 33
          },
          "indices": 34,
          "material": 6,
          "mode": 4
        }
      ]
    }
  ],
  "nodes": [
    {
      "children": [
        1
      ],
      "name": "RootNode (gltf orientation matrix)",
      "rotation": [
        -0.70710678118654746,
        -0,
        -0,
        0.70710678118654757
      ]
    },
    {
      "children": [
        2
      ],
      "name": "RootNode (model correction matrix)"
    },
    {
      "children": [
        3,
        4,
        5,
        6,
        7,
        8,
        9
      ],
      "name": "Bunk Bed.obj.cleaner.materialmerger.gles"
    },
    {
      "mesh": 0,
      "name": ""
    },
    {
      "mesh": 1,
      "name": ""
    },
    {
      "mesh": 2,
      "name": ""
    },
    {
      "mesh": 3,
      "name": ""
    },
    {
      "mesh": 4,
      "name": ""
    },
    {
      "mesh": 5,
      "name": ""
    },
    {
      "mesh": 6,
      "name": ""
    }
  ],
  "samplers": [
    {
      "magFilter": 9729,
      "minFilter": 9987,
      "wrapS": 10497,
      "wrapT": 10497
    }
  ],
  "scene": 0,
  "scenes": [
    {
      "name": "OSG_Scene",
      "nodes": [
        0
      ]
    }
  ],
  "textures": [
    {
      "sampler": 0,
      "source": 0
    },
    {
      "sampler": 0,
      "source": 1
    },
    {
      "sampler": 0,
      "source": 2
    },
    {
      "sampler": 0,
      "source": 3
    },
    {
      "sampler": 0,
      "source": 4
    },
    {
      "sampler": 0,
      "source": 5
    },
    {
      "sampler": 0,
      "source": 6
    },
    {
      "sampler": 0,
      "source": 7
    },
    {
      "sampler": 0,
      "source": 8
    },
    {
      "sampler": 0,
      "source": 9
    },
    {
      "sampler": 0,
      "source": 10
    },
    {
      "sampler": 0,
      "source": 11
    },
    {
      "sampler": 0,
      "source": 12
    },
    {
      "sampler": 0,
      "source": 13
    }
  ]
}

