{
  "accessors": [
    {
      "bufferView": 2,
      "componentType": 5126,
      "count": 294,
      "max": [
        -0.36064198613166809,
        0.19120700657367706,
        0.83562999963760376
      ],
      "min": [
        -0.47590398788452148,
        -0.41995799541473389,
        -0.83562397956848145
      ],
      "type": "VEC3"
    },
    {
      "bufferView": 2,
      "byteOffset": 3528,
      "componentType": 5126,
      "count": 294,
      "max": [
        1,
        1,
        1
      ],
      "min": [
        -1,
        -1,
        -1
      ],
      "type": "VEC3"
    },
    {
      "bufferView": 3,
      "componentType": 5126,
      "count": 294,
      "max": [
        1,
        0.6689038872718811,
        1,
        1
      ],
      "min": [
        -0.47601145505905151,
        -1,
        -1,
        1
      ],
      "type": "VEC4"
    },
    {
      "bufferView": 1,
      "componentType": 5126,
      "count": 294,
      "max": [
        0.75465202331542969,
        0.7994840145111084
      ],
      "min": [
        0.0099563403055071831,
        0.00050000002374872565
      ],
      "type": "VEC2"
    },
    {
      "bufferView": 0,
      "componentType": 5125,
      "count": 1296,
      "max": [
        293
      ],
      "min": [
        0
      ],
      "type": "SCALAR"
    },
    {
      "bufferView": 2,
      "byteOffset": 7056,
      "componentType": 5126,
      "count": 338,
      "max": [
        0.44633200764656067,
        -0.20430099964141846,
        0.8370550274848938
      ],
      "min": [
        -0.36015999317169189,
        -0.41759198904037476,
        -0.83704900741577148
      ],
      "type": "VEC3"
    },
    {
      "bufferView": 2,
      "byteOffset": 11112,
      "componentType": 5126,
      "count": 338,
      "max": [
        1,
        1,
        1
      ],
      "min": [
        -1,
        -1,
        -1
      ],
      "type": "VEC3"
    },
    {
      "bufferView": 3,
      "byteOffset": 4704,
      "componentType": 5126,
      "count": 338,
      "max": [
        1,
        0.70178896188735962,
        1,
        1
      ],
      "min": [
        -1,
        -0.70179295539855957,
        -1,
        1
      ],
      "type": "VEC4"
    },
    {
      "bufferView": 1,
      "byteOffset": 2352,
      "componentType": 5126,
      "count": 338,
      "max": [
        0.88663798570632935,
        0.98190802335739136
      ],
      "min": [
        0.00050000002374872565,
        0.00050000002374872565
      ],
      "type": "VEC2"
    },
    {
      "bufferView": 0,
      "byteOffset": 5184,
      "componentType": 5125,
      "count": 1296,
      "max": [
        337
      ],
      "min": [
        0
      ],
      "type": "SCALAR"
    },
    {
      "bufferView": 2,
      "byteOffset": 15168,
      "componentType": 5126,
      "count": 812,
      "max": [
        0.47590398788452148,
        0.20191699266433716,
        1
      ],
      "min": [
        -0.47332298755645752,
        -0.41995799541473389,
        -1
      ],
      "type": "VEC3"
    },
    {
      "bufferView": 2,
      "byteOffset": 24912,
      "componentType": 5126,
      "count": 812,
      "max": [
        1,
        0.99973434209823608,
        1
      ],
      "min": [
        -1,
        -1,
        -1
      ],
      "type": "VEC3"
    },
    {
      "bufferView": 3,
      "byteOffset": 10112,
      "componentType": 5126,
      "count": 812,
      "max": [
        1,
        0.72512435913085938,
        1,
        1
      ],
      "min": [
        -1,
        -0.72580140829086304,
        -1,
        1
      ],
      "type": "VEC4"
    },
    {
      "bufferView": 1,
      "byteOffset": 5056,
      "componentType": 5126,
      "count": 812,
      "max": [
        0.98770999908447266,
        0.98186397552490234
      ],
      "min": [
        0.0099563403055071831,
        0.25582098960876465
      ],
      "type": "VEC2"
    },
    {
      "bufferView": 0,
      "byteOffset": 10368,
      "componentType": 5125,
      "count": 3744,
      "max": [
        811
      ],
      "min": [
        0
      ],
      "type": "SCALAR"
    },
    {
      "bufferView": 2,
      "byteOffset": 34656,
      "componentType": 5126,
      "count": 40378,
      "max": [
        -0.067196100950241089,
        0.41995799541473389,
        0.0016163600375875831
      ],
      "min": [
        -0.40918600559234619,
        -0.20786899328231812,
        -0.84400999546051025
      ],
      "type": "VEC3"
    },
    {
      "bufferView": 2,
      "byteOffset": 519192,
      "componentType": 5126,
      "count": 40378,
      "max": [
        0.99998462200164795,
        0.99999821186065674,
        0.99994421005249023
      ],
      "min": [
        -0.99999409914016724,
        -0.99999862909317017,
        -0.99988937377929688
      ],
      "type": "VEC3"
    },
    {
      "bufferView": 3,
      "byteOffset": 23104,
      "componentType": 5126,
      "count": 40378,
      "max": [
        0.99933362007141113,
        0.9999961256980896,
        0.99979448318481445,
        1
      ],
      "min": [
        -0.99853330850601196,
        -0.99900239706039429,
        -0.99999946355819702,
        1
      ],
      "type": "VEC4"
    },
    {
      "bufferView": 1,
      "byteOffset": 11552,
      "componentType": 5126,
      "count": 40378,
      "max": [
        0.99949997663497925,
        0.97182399034500122
      ],
      "min": [
        0.019412700086832047,
        0.02886899933218956
      ],
      "type": "VEC2"
    },
    {
      "bufferView": 0,
      "byteOffset": 25344,
      "componentType": 5125,
      "count": 229488,
      "max": [
        40377
      ],
      "min": [
        0
      ],
      "type": "SCALAR"
    },
    {
      "bufferView": 2,
      "byteOffset": 1003728,
      "componentType": 5126,
      "count": 40378,
      "max": [
        -0.067196100950241089,
        0.41995799541473389,
        0.8414120078086853
      ],
      "min": [
        -0.40918600559234619,
        -0.20786899328231812,
        -0.0042143999598920345
      ],
      "type": "VEC3"
    },
    {
      "bufferView": 2,
      "byteOffset": 1488264,
      "componentType": 5126,
      "count": 40378,
      "max": [
        0.99998462200164795,
        0.99999821186065674,
        0.99994421005249023
      ],
      "min": [
        -0.99999409914016724,
        -0.99999862909317017,
        -0.99988937377929688
      ],
      "type": "VEC3"
    },
    {
      "bufferView": 3,
      "byteOffset": 669152,
      "componentType": 5126,
      "count": 40378,
      "max": [
        0.99933284521102905,
        0.99999606609344482,
        0.99979490041732788,
        1
      ],
      "min": [
        -0.99853324890136719,
        -0.99901443719863892,
        -0.9999995231628418,
        1
      ],
      "type": "VEC4"
    },
    {
      "bufferView": 1,
      "byteOffset": 334576,
      "componentType": 5126,
      "count": 40378,
      "max": [
        0.98531502485275269,
        0.85361897945404053
      ],
      "min": [
        0.37875398993492126,
        0.19908300042152405
      ],
      "type": "VEC2"
    },
    {
      "bufferView": 0,
      "byteOffset": 943296,
      "componentType": 5125,
      "count": 229488,
      "max": [
        40377
      ],
      "min": [
        0
      ],
      "type": "SCALAR"
    },
    {
      "bufferView": 2,
      "byteOffset": 1972800,
      "componentType": 5126,
      "count": 24222,
      "max": [
        0.44692298769950867,
        0.036941498517990112,
        0.0057569900527596474
      ],
      "min": [
        -0.12333600223064423,
        -0.25537899136543274,
        -0.8516160249710083
      ],
      "type": "VEC3"
    },
    {
      "bufferView": 2,
      "byteOffset": 2263464,
      "componentType": 5126,
      "count": 24222,
      "max": [
        0.99995887279510498,
        1,
        0.99995899200439453
      ],
      "min": [
        -0.99984467029571533,
        -1,
        -0.99993586540222168
      ],
      "type": "VEC3"
    },
    {
      "bufferView": 3,
      "byteOffset": 1315200,
      "componentType": 5126,
      "count": 24222,
      "max": [
        0.9999924898147583,
        0.99978518486022949,
        0.99881881475448608,
        1
      ],
      "min": [
        -0.99991363286972046,
        -0.99991756677627563,
        -0.99999964237213135,
        1
      ],
      "type": "VEC4"
    },
    {
      "bufferView": 1,
      "byteOffset": 657600,
      "componentType": 5126,
      "count": 24222,
      "max": [
        0.76749402284622192,
        0.74400198459625244
      ],
      "min": [
        0.27000600099563599,
        0.44967600703239441
      ],
      "type": "VEC2"
    },
    {
      "bufferView": 0,
      "byteOffset": 1861248,
      "componentType": 5125,
      "count": 137760,
      "max": [
        24221
      ],
      "min": [
        0
      ],
      "type": "SCALAR"
    },
    {
      "bufferView": 2,
      "byteOffset": 2554128,
      "componentType": 5126,
      "count": 24222,
      "max": [
        0.44692400097846985,
        0.036941498517990112,
        0.84126800298690796
      ],
      "min": [
        -0.12333600223064423,
        -0.25537899136543274,
        -0.016105299815535545
      ],
      "type": "VEC3"
    },
    {
      "bufferView": 2,
      "byteOffset": 2844792,
      "componentType": 5126,
      "count": 24222,
      "max": [
        0.99995887279510498,
        1,
        0.99995899200439453
      ],
      "min": [
        -0.99984467029571533,
        -1,
        -0.99993586540222168
      ],
      "type": "VEC3"
    },
    {
      "bufferView": 3,
      "byteOffset": 1702752,
      "componentType": 5126,
      "count": 24222,
      "max": [
        0.9999927282333374,
        0.99978524446487427,
        0.99883776903152466,
        1
      ],
      "min": [
        -0.99991649389266968,
        -0.9999164342880249,
        -0.99999970197677612,
        1
      ],
      "type": "VEC4"
    },
    {
      "bufferView": 1,
      "byteOffset": 851376,
      "componentType": 5126,
      "count": 24222,
      "max": [
        0.71548402309417725,
        0.90631401538848877
      ],
      "min": [
        0.00050000002374872565,
        0.37402498722076416
      ],
      "type": "VEC2"
    },
    {
      "bufferView": 0,
      "byteOffset": 2412288,
      "componentType": 5125,
      "count": 137760,
      "max": [
        24221
      ],
      "min": [
        0
      ],
      "type": "SCALAR"
    }
  ],
  "asset": {
    "extras": {
      "author": "Vegar Svenning (https://sketchfab.com/Svenning)",
      "license": "CC-BY-4.0 (http://creativecommons.org/licenses/by/4.0/)",
      "source": "https://sketchfab.com/models/e2bf3efb91f545de9e9b5d0926ecaa5e",
      "title": "Leather couch"
    },
    "generator": "Sketchfab-3.19.4",
    "version": "2.0"
  },
  "bufferViews": [
    {
      "buffer": 0,
      "byteLength": 2963328,
      "byteOffset": 0,
      "name": "floatBufferViews",
      "target": 34963
    },
    {
      "buffer": 0,
      "byteLength": 1045152,
      "byteOffset": 2963328,
      "byteStride": 8,
      "name": "floatBufferViews",
      "target": 34962
    },
    {
      "buffer": 0,
      "byteLength": 3135456,
      "byteOffset": 4008480,
      "byteStride": 12,
      "name": "floatBufferViews",
      "target": 34962
    },
    {
      "buffer": 0,
      "byteLength": 2090304,
      "byteOffset": 7143936,
      "byteStride": 16,
      "name": "floatBufferViews",
      "target": 34962
    }
  ],
  "buffers": [
    {
      "byteLength": 9234240,
      "uri": "scene.bin"
    }
  ],
  "images": [
    {
      "uri": "textures/Pillow_3_metallicRoughness.png"
    },
    {
      "uri": "textures/Pillow_3_normal.jpeg"
    },
    {
      "uri": "textures/Pillow_3_baseColor.jpeg"
    },
    {
      "uri": "textures/Pillow_4_metallicRoughness.png"
    },
    {
      "uri": "textures/Pillow_4_normal.jpeg"
    },
    {
      "uri": "textures/Pillow_4_baseColor.jpeg"
    },
    {
      "uri": "textures/Back_metallicRoughness.png"
    },
    {
      "uri": "textures/Back_normal.jpeg"
    },
    {
      "uri": "textures/Back_baseColor.jpeg"
    },
    {
      "uri": "textures/Bottom_metallicRoughness.png"
    },
    {
      "uri": "textures/Bottom_normal.jpeg"
    },
    {
      "uri": "textures/Bottom_baseColor.jpeg"
    },
    {
      "uri": "textures/Pillow_1_metallicRoughness.png"
    },
    {
      "uri": "textures/Pillow_1_normal.jpeg"
    },
    {
      "uri": "textures/Pillow_1_baseColor.jpeg"
    },
    {
      "uri": "textures/Sides_metallicRoughness.png"
    },
    {
      "uri": "textures/Sides_normal.jpeg"
    },
    {
      "uri": "textures/Sides_baseColor.jpeg"
    },
    {
      "uri": "textures/Pillow_2_metallicRoughness.png"
    },
    {
      "uri": "textures/Pillow_2_normal.jpeg"
    },
    {
      "uri": "textures/Pillow_2_baseColor.jpeg"
    }
  ],
  "materials": [
    {
      "doubleSided": true,
      "emissiveFactor": [
        0,
        0,
        0
      ],
      "name": "Pillow_1",
      "normalTexture": {
        "index": 13,
        "scale": 1,
        "texCoord": 0
      },
      "occlusionTexture": {
        "index": 12,
        "strength": 1,
        "texCoord": 0
      },
      "pbrMetallicRoughness": {
        "baseColorFactor": [
          1,
          1,
          1,
          1
        ],
        "baseColorTexture": {
          "index": 14,
          "texCoord": 0
        },
        "metallicFactor": 1,
        "metallicRoughnessTexture": {
          "index": 12,
          "texCoord": 0
        },
        "roughnessFactor": 1
      }
    },
    {
      "doubleSided": true,
      "emissiveFactor": [
        0,
        0,
        0
      ],
      "name": "Pillow_2",
      "normalTexture": {
        "index": 19,
        "scale": 1,
        "texCoord": 0
      },
      "occlusionTexture": {
        "index": 18,
        "strength": 1,
        "texCoord": 0
      },
      "pbrMetallicRoughness": {
        "baseColorFactor": [
          1,
          1,
          1,
          1
        ],
        "baseColorTexture": {
          "index": 20,
          "texCoord": 0
        },
        "metallicFactor": 1,
        "metallicRoughnessTexture": {
          "index": 18,
          "texCoord": 0
        },
        "roughnessFactor": 1
      }
    },
    {
      "doubleSided": true,
      "emissiveFactor": [
        0,
        0,
        0
      ],
      "name": "Pillow_3",
      "normalTexture": {
        "index": 1,
        "scale": 1,
        "texCoord": 0
      },
      "occlusionTexture": {
        "index": 0,
        "strength": 1,
        "texCoord": 0
      },
      "pbrMetallicRoughness": {
        "baseColorFactor": [
          1,
          1,
          1,
          1
        ],
        "baseColorTexture": {
          "index": 2,
          "texCoord": 0
        },
        "metallicFactor": 1,
        "metallicRoughnessTexture": {
          "index": 0,
          "texCoord": 0
        },
        "roughnessFactor": 1
      }
    },
    {
      "doubleSided": true,
      "emissiveFactor": [
        0,
        0,
        0
      ],
      "name": "Pillow_4",
      "normalTexture": {
        "index": 4,
        "scale": 1,
        "texCoord": 0
      },
      "occlusionTexture": {
        "index": 3,
        "strength": 1,
        "texCoord": 0
      },
      "pbrMetallicRoughness": {
        "baseColorFactor": [
          1,
          1,
          1,
          1
        ],
        "baseColorTexture": {
          "index": 5,
          "texCoord": 0
        },
        "metallicFactor": 1,
        "metallicRoughnessTexture": {
          "index": 3,
          "texCoord": 0
        },
        "roughnessFactor": 1
      }
    },
    {
      "doubleSided": true,
      "emissiveFactor": [
        0,
        0,
        0
      ],
      "name": "Sides",
      "normalTexture": {
        "index": 16,
        "scale": 1,
        "texCoord": 0
      },
      "occlusionTexture": {
        "index": 15,
        "strength": 1,
        "texCoord": 0
      },
      "pbrMetallicRoughness": {
        "baseColorFactor": [
          1,
          1,
          1,
          1
        ],
        "baseColorTexture": {
          "index": 17,
          "texCoord": 0
        },
        "metallicFactor": 1,
        "metallicRoughnessTexture": {
          "index": 15,
          "texCoord": 0
        },
        "roughnessFactor": 1
      }
    },
    {
      "doubleSided": true,
      "emissiveFactor": [
        0,
        0,
        0
      ],
      "name": "Bottom",
      "normalTexture": {
        "index": 10,
        "scale": 1,
        "texCoord": 0
      },
      "occlusionTexture": {
        "index": 9,
        "strength": 1,
        "texCoord": 0
      },
      "pbrMetallicRoughness": {
        "baseColorFactor": [
          1,
          1,
          1,
          1
        ],
        "baseColorTexture": {
          "index": 11,
          "texCoord": 0
        },
        "metallicFactor": 1,
        "metallicRoughnessTexture": {
          "index": 9,
          "texCoord": 0
        },
        "roughnessFactor": 1
      }
    },
    {
      "doubleSided": true,
      "emissiveFactor": [
        0,
        0,
        0
      ],
      "name": "Back",
      "normalTexture": {
        "index": 7,
        "scale": 1,
        "texCoord": 0
      },
      "occlusionTexture": {
        "index": 6,
        "strength": 1,
        "texCoord": 0
      },
      "pbrMetallicRoughness": {
        "baseColorFactor": [
          1,
          1,
          1,
          1
        ],
        "baseColorTexture": {
          "index": 8,
          "texCoord": 0
        },
        "metallicFactor": 1,
        "metallicRoughnessTexture": {
          "index": 6,
          "texCoord": 0
        },
        "roughnessFactor": 1
      }
    }
  ],
  "meshes": [
    {
      "name": "defaultMaterial",
      "primitives": [
        {
          "attributes": {
            "NORMAL": 1,
            "POSITION": 0,
            "TANGENT": 2,
            "TEXCOORD_0": 3
          },
          "indices": 4,
          "material": 6,
          "mode": 4
        }
      ]
    },
    {
      "name": "defaultMaterial",
      "primitives": [
        {
          "attributes": {
            "NORMAL": 6,
            "POSITION": 5,
            "TANGENT": 7,
            "TEXCOORD_0": 8
          },
          "indices": 9,
          "material": 5,
          "mode": 4
        }
      ]
    },
    {
      "name": "defaultMaterial",
      "primitives": [
        {
          "attributes": {
            "NORMAL": 11,
            "POSITION": 10,
            "TANGENT": 12,
            "TEXCOORD_0": 13
          },
          "indices": 14,
          "material": 4,
          "mode": 4
        }
      ]
    },
    {
      "name": "defaultMaterial",
      "primitives": [
        {
          "attributes": {
            "NORMAL": 16,
            "POSITION": 15,
            "TANGENT": 17,
            "TEXCOORD_0": 18
          },
          "indices": 19,
          "material": 3,
          "mode": 4
        }
      ]
    },
    {
      "name": "defaultMaterial",
      "primitives": [
        {
          "attributes": {
            "NORMAL": 21,
            "POSITION": 20,
            "TANGENT": 22,
            "TEXCOORD_0": 23
          },
          "indices": 24,
          "material": 2,
          "mode": 4
        }
      ]
    },
    {
      "name": "defaultMaterial",
      "primitives": [
        {
          "attributes": {
            "NORMAL": 26,
            "POSITION": 25,
            "TANGENT": 27,
            "TEXCOORD_0": 28
          },
          "indices": 29,
          "material": 1,
          "mode": 4
        }
      ]
    },
    {
      "name": "defaultMaterial",
      "primitives": [
        {
          "attributes": {
            "NORMAL": 31,
            "POSITION": 30,
            "TANGENT": 32,
            "TEXCOORD_0": 33
          },
          "indices": 34,
          "material": 0,
          "mode": 4
        }
      ]
    }
  ],
  "nodes": [
    {
      "children": [
        1
      ],
      "name": "RootNode (gltf orientation matrix)",
      "rotation": [
        -0.70710678118654746,
        -0,
        -0,
        0.70710678118654757
      ]
    },
    {
      "children": [
        2
      ],
      "name": "RootNode (model correction matrix)"
    },
    {
      "children": [
        3,
        5,
        7,
        9,
        11,
        13,
        15
      ],
      "matrix": [
        1,
        0,
        0,
        0,
        0,
        -4.3711390063094768e-08,
        0.999999999999999,
        0,
        0,
        -0.999999999999999,
        -4.3711390063094768e-08,
        0,
        0,
        0,
        0,
        1
      ],
      "name": "Collada visual scene group"
    },
    {
      "children": [
        4
      ],
      "name": "Object002"
    },
    {
      "mesh": 0,
      "name": "defaultMaterial"
    },
    {
      "children": [
        6
      ],
      "name": "Object002"
    },
    {
      "mesh": 1,
      "name": "defaultMaterial"
    },
    {
      "children": [
        8
      ],
      "name": "Object002"
    },
    {
      "mesh": 2,
      "name": "defaultMaterial"
    },
    {
      "children": [
        10
      ],
      "name": "Object002"
    },
    {
      "mesh": 3,
      "name": "defaultMaterial"
    },
    {
      "children": [
        12
      ],
      "name": "Object002"
    },
    {
      "mesh": 4,
      "name": "defaultMaterial"
    },
    {
      "children": [
        14
      ],
      "name": "Object002"
    },
    {
      "mesh": 5,
      "name": "defaultMaterial"
    },
    {
      "children": [
        16
      ],
      "name": "Object002"
    },
    {
      "mesh": 6,
      "name": "defaultMaterial"
    }
  ],
  "samplers": [
    {
      "magFilter": 9729,
      "minFilter": 9987,
      "wrapS": 10497,
      "wrapT": 10497
    }
  ],
  "scene": 0,
  "scenes": [
    {
      "name": "OSG_Scene",
      "nodes": [
        0
      ]
    }
  ],
  "textures": [
    {
      "sampler": 0,
      "source": 0
    },
    {
      "sampler": 0,
      "source": 1
    },
    {
      "sampler": 0,
      "source": 2
    },
    {
      "sampler": 0,
      "source": 3
    },
    {
      "sampler": 0,
      "source": 4
    },
    {
      "sampler": 0,
      "source": 5
    },
    {
      "sampler": 0,
      "source": 6
    },
    {
      "sampler": 0,
      "source": 7
    },
    {
      "sampler": 0,
      "source": 8
    },
    {
      "sampler": 0,
      "source": 9
    },
    {
      "sampler": 0,
      "source": 10
    },
    {
      "sampler": 0,
      "source": 11
    },
    {
      "sampler": 0,
      "source": 12
    },
    {
      "sampler": 0,
      "source": 13
    },
    {
      "sampler": 0,
      "source": 14
    },
    {
      "sampler": 0,
      "source": 15
    },
    {
      "sampler": 0,
      "source": 16
    },
    {
      "sampler": 0,
      "source": 17
    },
    {
      "sampler": 0,
      "source": 18
    },
    {
      "sampler": 0,
      "source": 19
    },
    {
      "sampler": 0,
      "source": 20
    }
  ]
}

